<?xml version="1.0" encoding="utf-8"?>
<!-- Generator: Adobe Illustrator 21.1.0, SVG Export Plug-In . SVG Version: 6.00 Build 0)  -->
<svg version="1.1" id="Layer_1" xmlns="http://www.w3.org/2000/svg" xmlns:xlink="http://www.w3.org/1999/xlink" x="0px" y="0px"
	 viewBox="0 0 115.7 121.3" style="enable-background:new 0 0 115.7 121.3;" xml:space="preserve">
<style type="text/css">
	.st0{fill:none;stroke:#FFFFFF;stroke-miterlimit:10;}
</style>
<g>
	<path class="st0" d="M28.8,3.2C18,14.4,10.3,28.5,6.6,43.6c-1.9,7.7-2.7,15.8-1.2,23.6c2,10.2,8,19.4,15.6,26.5
		c9.9,9.2,23.4,15.4,36.9,14.2c13.5-1.1,26.6-10.6,29.7-23.8c0.9-3.9,0.6-8.7-2.7-10.9C80.1,70.1,74,75,71.2,80
		c-4.5,8-6.1,18.8-0.1,25.7c4,4.6,10.3,6.3,16.4,6.9c8.7,0.9,17.5,0.1,25.9-2.3"/>
	<path class="st0" d="M98,105.3c5.4,1.6,10.7,3.2,16.1,4.8c-3.2,2.6-5.8,5.8-7.6,9.5"/>
</g>
</svg>
