<?xml version="1.0" encoding="utf-8"?>
<!-- Generator: Adobe Illustrator 21.1.0, SVG Export Plug-In . SVG Version: 6.00 Build 0)  -->
<svg version="1.1" id="Layer_1" xmlns="http://www.w3.org/2000/svg" xmlns:xlink="http://www.w3.org/1999/xlink" x="0px" y="0px"
	 viewBox="0 0 115.7 63.7" style="enable-background:new 0 0 115.7 63.7;" xml:space="preserve">
<style type="text/css">
	.st0{fill:#FFFFFF;}
	.st1{fill:#F95E08;}
</style>
<g>
	<g>
		<path class="st0" d="M40.7,14.1l0.4-1.3l-5.5-1.6l-0.4,1.3c-4,0.1-7.7,2.8-8.8,6.9c-1.4,5,1.5,10.3,6.5,11.7
			c5,1.4,10.3-1.5,11.7-6.5C45.8,20.6,44.1,16.3,40.7,14.1z M35.5,28.9c-3.8,0-6.8-3.1-6.8-6.8c0-3.8,3.1-6.8,6.8-6.8
			c3.8,0,6.8,3.1,6.8,6.8C42.3,25.9,39.3,28.9,35.5,28.9z"/>
		<circle class="st1" cx="40.9" cy="8" r="0.9"/>
		<circle class="st1" cx="38.3" cy="19.3" r="0.9"/>
		<circle class="st1" cx="36.7" cy="17.8" r="0.6"/>
		<path class="st1" d="M40.8,21.3c-0.5,0.4-1.1,0.6-1.8,0.6c-1.1,0.1-2.3-0.3-3.3-0.8c-1-0.5-2-1.1-3.2-1c-0.8,0-1.5,0.3-2.2,0.8
			c-0.1,0.4-0.2,0.8-0.2,1.2c0,2.9,2.4,5.3,5.3,5.3c2.9,0,5.3-2.4,5.3-5.3C40.8,21.8,40.8,21.5,40.8,21.3z M32,22.4
			c0-0.4,0.3-0.8,0.8-0.8s0.8,0.3,0.8,0.8c0,0.4-0.3,0.8-0.8,0.8S32,22.8,32,22.4z M33.4,24.6c-0.2,0-0.4-0.2-0.4-0.4
			c0-0.2,0.2-0.4,0.4-0.4c0.2,0,0.4,0.2,0.4,0.4C33.8,24.4,33.6,24.6,33.4,24.6z"/>
		<rect x="35.5" y="9" transform="matrix(0.9617 0.2741 -0.2741 0.9617 4.2103 -10.2934)" class="st0" width="6.8" height="1.8"/>
		<circle class="st1" cx="38.4" cy="6.7" r="0.5"/>
		<circle class="st1" cx="41.1" cy="4.4" r="0.5"/>
	</g>
	<g>
		<path class="st1" d="M5.2,35.3h4.4v20.3H20v3.8H5.2V35.3z"/>
		<path class="st1" d="M31.6,48.6h0.6v-0.2c0-2.3-1.4-3.1-3.3-3.1c-2.5,0-4.8,1.7-4.8,1.7l-1.6-3.1c0,0,2.7-2.1,6.8-2.1
			c4.6,0,7.2,2.5,7.2,6.9v10.8h-4V58c0-0.7,0.1-1.2,0.1-1.2h-0.1c0,0-1.3,3.1-5.3,3.1c-3.1,0-5.9-1.9-5.9-5.4
			C21.3,49,28.8,48.6,31.6,48.6z M28.3,56.5c2.3,0,3.9-2.4,3.9-4.6v-0.4h-0.7c-2.2,0-5.8,0.3-5.8,2.7C25.7,55.4,26.5,56.5,28.3,56.5
			z"/>
		<path class="st1" d="M40.3,35.3h4.3v7.4c0,0.8-0.1,1.5-0.1,1.5h0.1c0,0,1.5-2.5,5.2-2.5c4.7,0,7.7,3.7,7.7,9.1
			c0,5.5-3.4,9.1-7.9,9.1c-3.6,0-5.2-2.6-5.2-2.6h-0.1c0,0,0.1,0.5,0.1,1.2v1h-4.1V35.3z M48.7,56.2c2.4,0,4.3-1.9,4.3-5.4
			c0-3.3-1.8-5.4-4.3-5.4c-2.2,0-4.3,1.6-4.3,5.5C44.4,53.6,45.9,56.2,48.7,56.2z"/>
		<path class="st1" d="M60.8,54.3c0,0,1.9,1.9,4.7,1.9c1.2,0,2.3-0.5,2.3-1.6c0-2.6-8.4-2.2-8.4-7.8c0-3.2,2.9-5.1,6.6-5.1
			c3.9,0,5.8,2,5.8,2l-1.6,3.2c0,0-1.6-1.5-4.2-1.5c-1.1,0-2.2,0.5-2.2,1.6c0,2.4,8.4,2.1,8.4,7.7c0,2.9-2.5,5.2-6.6,5.2
			c-4.3,0-6.7-2.5-6.7-2.5L60.8,54.3z"/>
	</g>
	<g>
		<path class="st0" d="M14.8,5.9c5.9,0,8.9,3.3,8.9,3.3l-2.1,3.3c0,0-2.8-2.5-6.6-2.5c-5.1,0-8.1,3.8-8.1,8.3c0,4.6,3.1,8.6,8.1,8.6
			c4.2,0,7-3.1,7-3.1l2.3,3.2c0,0-3.3,3.9-9.5,3.9c-7.4,0-12.5-5.5-12.5-12.6C2.4,11.3,7.7,5.9,14.8,5.9z"/>
		<path class="st0" d="M54.2,12.7c3.8,0,5,2.2,5,2.2h0.1c0,0,0-0.4,0-1V6.3h4.3v24.1h-4.1V29c0-0.6,0.1-1.1,0.1-1.1h-0.1
			c0,0-1.5,3-5.4,3c-4.7,0-7.7-3.7-7.7-9.1C46.3,16.3,49.6,12.7,54.2,12.7z M55,27.2c2.2,0,4.3-1.6,4.3-5.5c0-2.7-1.4-5.3-4.3-5.3
			c-2.4,0-4.3,1.9-4.3,5.4C50.7,25.1,52.5,27.2,55,27.2z"/>
		<path class="st0" d="M67.6,6.3h4.3v3.8h-4.3V6.3z M67.6,13.1h4.3v17.3h-4.3V13.1z"/>
		<path class="st0" d="M76,13.1h4.1v2c0,0.6-0.1,1.2-0.1,1.2h0.1c0.7-1.5,2.6-3.6,6.1-3.6c3.8,0,6,2,6,6.6v11.1H88V20.2
			c0-2.1-0.5-3.5-2.8-3.5c-2.3,0-4,1.5-4.7,3.5c-0.2,0.7-0.3,1.5-0.3,2.3v7.9H76V13.1z"/>
		<path class="st0" d="M102.7,33.9c2.6,0,4.9-1.1,4.9-4.2v-1c0-0.4,0.1-0.9,0.1-0.9h-0.1c-1,1.5-2.5,2.3-4.8,2.3c-5,0-7.8-4-7.8-8.8
			s2.7-8.6,7.7-8.6c3.8,0,5.1,2.2,5.1,2.2h0.1c0,0,0-0.2,0-0.5v-1.3h4v16.3c0,5.9-4.6,8.2-9.1,8.2c-2.2,0-4.5-0.6-6.1-1.5l1.3-3.3
			C97.9,32.8,100.1,33.9,102.7,33.9z M107.7,21.4c0-3.9-1.9-5-4.3-5c-2.6,0-4.1,1.9-4.1,4.8c0,3,1.6,5.3,4.3,5.3
			C105.7,26.5,107.7,25.3,107.7,21.4z"/>
	</g>
</g>
</svg>
